<svg width="88" height="88" viewBox="0 0 88 88" fill="none" xmlns="http://www.w3.org/2000/svg">
<path d="M29.6667 54.3335C29.6667 59.4879 33.8454 63.6667 38.9999 63.6667H47.6667C53.1895 63.6667 57.6667 59.1895 57.6667 53.6667C57.6667 48.1439 53.1895 43.6667 47.6667 43.6667H39.6667C34.1438 43.6667 29.6667 39.1895 29.6667 33.6667C29.6667 28.1439 34.1438 23.6667 39.6667 23.6667H48.3335C53.4879 23.6667 57.6667 27.8454 57.6667 33.0001M43.6667 17.6667V23.6667M43.6667 63.6667V69.6667M83.6667 43.6667C83.6667 65.7579 65.7579 83.6667 43.6667 83.6667C21.5753 83.6667 3.66668 65.7579 3.66668 43.6667C3.66668 21.5753 21.5753 3.66675 43.6667 3.66675C65.7579 3.66675 83.6667 21.5753 83.6667 43.6667Z" stroke="#EAB308" stroke-width="7" stroke-linecap="round" stroke-linejoin="round"/>
</svg>
